<svg version="1.0" xmlns="http://www.w3.org/2000/svg" width="32" height="32" viewBox="0 0 282.000000 290.000000" preserveAspectRatio="xMidYMid meet">

<g transform="translate(0.000000,290.000000) scale(0.100000,-0.100000)" fill="#ffffffff" stroke="none">
<path d="M1471 2779 c-169 -33 -331 -117 -555 -287 -91 -70 -310 -296 -396 -411 -125 -168 -256 -410 -315 -586 -10 -27 -21 -59 -25 -70 -5 -11 -13 -40 -20 -65 -6 -25 -16 -61 -21 -80 -26 -91 -32 -124 -39 -250 -5 -74 -9 -194 -10 -266 -1 -121 1 -137 28 -217 35 -101 64 -154 121 -219 129 -146 345 -218 563 -188 230 31 441 142 629 329 118 119 166 180 239 302 48 80 50 87 50 158 0 63 -2 72 -16 67 -9 -3 -19 -6 -23 -6 -4 0 -29 -32 -56 -71 -95 -134 -260 -314 -339 -368 -274 -189 -535 -153 -696 94 -22 34 -49 87 -60 119 -62 182 -46 468 42 731 127 382 455 807 730 946 77 39 199 79 240 79 55 0 132 -27 180 -64 86 -66 120 -168 135 -406 6 -104 30 -128 93 -95 43 22 78 100 107 234 43 205 27 352 -51 454 -37 48 -134 113 -199 132 -56 17 -260 19 -336 4z"/>
<path d="M1384 2282 c-84 -29 -160 -82 -249 -172 -109 -111 -129 -136 -210 -255 -103 -151 -192 -354 -230 -525 -9 -41 -20 -94 -26 -118 -12 -57 -12 -201 2 -259 39 -175 73 -238 155 -290 172 -109 382 -39 611 201 113 118 153 177 153 223 0 42 -32 77 -63 67 -33 -10 -44 -21 -78 -81 -38 -67 -91 -118 -186 -183 -83 -56 -141 -70 -211 -51 -173 46 -250 250 -192 510 77 348 306 660 504 687 34 5 56 1 99 -19 64 -29 102 -74 116 -137 43 -197 47 -204 91 -195 59 13 90 92 90 228 -1 282 -164 442 -376 369z"/>
<path d="M1290 1854 c-58 -25 -170 -158 -230 -271 -61 -119 -92 -332 -62 -437 22 -79 76 -126 150 -134 41 -4 59 0 102 24 63 34 120 97 157 172 25 50 25 57 12 81 -11 20 -22 26 -49 26 -29 0 -37 -6 -55 -38 -38 -66 -62 -87 -101 -87 -49 0 -94 45 -94 94 0 100 66 289 123 348 55 59 112 47 148 -31 19 -43 27 -51 50 -51 18 0 36 10 54 32 25 30 27 37 23 100 -11 143 -114 221 -228 172z"/>
</g>
</svg>