<?xml version="1.0" encoding="UTF-8"?>
<!DOCTYPE svg PUBLIC "-//W3C//DTD SVG 1.1//EN" "http://www.w3.org/Graphics/SVG/1.1/DTD/svg11.dtd">
<svg xmlns="http://www.w3.org/2000/svg" version="1.1" width="964px" height="643px" style="shape-rendering:geometricPrecision; text-rendering:geometricPrecision; image-rendering:optimizeQuality; fill-rule:evenodd; clip-rule:evenodd" xmlns:xlink="http://www.w3.org/1999/xlink">
<g><path style="opacity:1" fill="#fefefe" d="M -0.5,-0.5 C 320.833,-0.5 642.167,-0.5 963.5,-0.5C 963.5,213.833 963.5,428.167 963.5,642.5C 739.833,642.5 516.167,642.5 292.5,642.5C 348.779,613.873 407.445,591.04 468.5,574C 536.917,554.116 606.584,540.783 677.5,534C 694.152,532.869 710.819,532.036 727.5,531.5C 748.867,532.241 770.2,533.075 791.5,534C 797.331,526.986 796.331,520.986 788.5,516C 783.773,514.937 779.107,513.77 774.5,512.5C 772.343,511.593 770.01,510.927 767.5,510.5C 763.102,510.706 758.768,510.373 754.5,509.5C 746.384,507.957 738.05,507.29 729.5,507.5C 714.672,506.566 699.672,505.899 684.5,505.5C 666.175,506.293 647.841,506.627 629.5,506.5C 623.34,506.982 617.34,507.649 611.5,508.5C 603.35,509.601 595.017,510.268 586.5,510.5C 580.34,510.982 574.34,511.649 568.5,512.5C 560.85,513.652 553.183,514.652 545.5,515.5C 538.626,515.521 531.959,516.187 525.5,517.5C 522.833,518.167 520.167,518.833 517.5,519.5C 514.482,519.335 511.482,519.502 508.5,520C 507.944,520.383 507.611,520.883 507.5,521.5C 505.5,521.5 503.5,521.5 501.5,521.5C 497.705,521.69 494.372,522.69 491.5,524.5C 490.5,524.5 489.5,524.5 488.5,524.5C 483.363,525.261 478.363,526.261 473.5,527.5C 465.218,528.918 456.885,530.584 448.5,532.5C 443.951,533.045 439.618,534.045 435.5,535.5C 429.906,536.717 424.24,538.05 418.5,539.5C 415.252,540.376 411.919,541.043 408.5,541.5C 406.97,541.64 405.97,542.307 405.5,543.5C 397.312,545.796 388.979,547.629 380.5,549C 367.625,553.302 354.625,557.135 341.5,560.5C 328.148,565.17 314.814,569.836 301.5,574.5C 298.603,575.129 295.936,576.129 293.5,577.5C 292.167,578.167 290.833,578.833 289.5,579.5C 286.423,579.179 284.09,580.179 282.5,582.5C 268.36,586.532 255.027,592.365 242.5,600C 236.752,601.171 231.752,603.671 227.5,607.5C 217.804,611.005 209.138,616.005 201.5,622.5C 191.994,626.007 185.994,632.673 183.5,642.5C 122.167,642.5 60.8333,642.5 -0.5,642.5C -0.5,428.167 -0.5,213.833 -0.5,-0.5 Z"/></g>
<g><path style="opacity:1" fill="#2a2a2a" d="M 611.5,19.5 C 608.28,21.9786 604.613,23.812 600.5,25C 600.833,25.3333 601.167,25.6667 601.5,26C 600.007,27.3681 598.507,27.5348 597,26.5C 596.887,28.9739 595.887,30.9739 594,32.5C 593.342,30.892 593.842,29.7253 595.5,29C 592.722,28.0772 590.722,28.9106 589.5,31.5C 585.246,32.507 581.246,33.8403 577.5,35.5C 588.05,28.6808 599.384,23.3474 611.5,19.5 Z"/></g>
<g><path style="opacity:1" fill="#2c2c2c" d="M 567.5,56.5 C 568.165,59.3138 568.498,62.3138 568.5,65.5C 568.285,71.9237 567.452,78.2571 566,84.5C 565.667,84.1667 565.333,83.8333 565,83.5C 563.435,87.4022 561.602,91.0688 559.5,94.5C 562.04,87.3747 564.374,80.0414 566.5,72.5C 567.495,67.2079 567.828,61.8746 567.5,56.5 Z"/></g>
<g><path style="opacity:1" fill="#555555" d="M 855.5,164.5 C 844.748,162.905 834.081,163.238 823.5,165.5C 823.97,164.307 824.97,163.64 826.5,163.5C 831.145,162.925 835.812,162.592 840.5,162.5C 845.767,162.287 850.767,162.954 855.5,164.5 Z"/></g>
<g><path style="opacity:1" fill="#0c0c0c" d="M 855.5,164.5 C 868.873,168.697 878.373,177.364 884,190.5C 890.928,208.477 894.261,227.144 894,246.5C 894.671,247.252 895.504,247.586 896.5,247.5C 900.455,246.863 903.122,248.363 904.5,252C 901.419,255.877 897.919,256.377 894,253.5C 893.691,255.391 894.525,256.725 896.5,257.5C 895.397,257.998 894.397,258.331 893.5,258.5C 895.554,260.194 897.888,261.361 900.5,262C 898.167,264 895.833,266 893.5,268C 894.624,268.249 895.624,268.749 896.5,269.5C 896.333,269.833 896.167,270.167 896,270.5C 895.282,269.549 894.449,269.383 893.5,270C 893.07,270.92 892.736,271.753 892.5,272.5C 891.355,271.224 891.355,269.891 892.5,268.5C 890.506,265.048 888.006,264.715 885,267.5C 884.174,265.595 883.007,265.261 881.5,266.5C 882.629,268.529 882.129,268.863 880,267.5C 878.372,268.819 878.539,270.152 880.5,271.5C 879.132,272.594 877.965,272.26 877,270.5C 876.833,270.833 876.667,271.167 876.5,271.5C 877.587,274.675 878.587,277.841 879.5,281C 879.05,282.285 878.383,283.452 877.5,284.5C 878.833,286.167 880.167,287.833 881.5,289.5C 880.645,290.293 879.811,289.96 879,288.5C 878.64,290.421 877.806,292.088 876.5,293.5C 877.5,294.167 878.5,294.833 879.5,295.5C 878.754,296.736 878.421,298.07 878.5,299.5C 876.058,299.119 875.391,299.786 876.5,301.5C 872.009,302.834 872.009,305.001 876.5,308C 872.362,308.587 870.029,306.753 869.5,302.5C 869.167,303 868.833,303.5 868.5,304C 869.695,305.533 869.695,307.033 868.5,308.5C 869.391,309.59 870.391,309.59 871.5,308.5C 871.833,309 872.167,309.5 872.5,310C 871.616,311.098 870.616,311.598 869.5,311.5C 870.747,313.497 871.581,315.497 872,317.5C 871,316.167 870,316.167 869,317.5C 867.777,315.015 866.277,314.848 864.5,317C 865.5,318 866.5,319 867.5,320C 865.717,321.067 865.217,322.567 866,324.5C 866.811,323.04 867.645,322.707 868.5,323.5C 866.561,325.122 866.228,326.956 867.5,329C 866.376,329.249 865.376,329.749 864.5,330.5C 866.184,331.854 866.684,333.521 866,335.5C 865.275,333.842 864.108,333.342 862.5,334C 866.709,338.563 867.376,343.729 864.5,349.5C 860.375,349.723 859.709,351.223 862.5,354C 859.644,358.543 857.478,363.376 856,368.5C 853.127,367.946 850.293,367.779 847.5,368C 848.423,370.048 847.923,371.881 846,373.5C 845.316,372.216 845.483,371.049 846.5,370C 845.833,369.333 845.167,369.333 844.5,370C 844.112,371.525 844.112,373.192 844.5,375C 843.5,375.667 842.5,375.667 841.5,375C 842.517,373.951 842.684,372.784 842,371.5C 840.881,374.543 839.215,377.21 837,379.5C 834.141,378.827 831.308,377.993 828.5,377C 828.833,376.667 829.167,376.333 829.5,376C 828.333,375.5 827.5,374.667 827,373.5C 826.667,373.833 826.333,374.167 826,374.5C 825.228,373.151 824.061,372.318 822.5,372C 824.915,370.526 824.915,368.86 822.5,367C 823.673,365.495 824.839,363.995 826,362.5C 826.333,363.167 826.667,363.833 827,364.5C 828.399,363.773 829.899,363.273 831.5,363C 828.942,361.62 828.942,360.12 831.5,358.5C 830.833,357.833 830.167,357.167 829.5,356.5C 830.348,354.591 830.682,352.591 830.5,350.5C 835.429,338.671 840.429,327.004 845.5,315.5C 847.163,311.012 848.497,306.346 849.5,301.5C 849.529,297.895 850.195,294.395 851.5,291C 851.646,288.966 850.98,287.299 849.5,286C 823.915,285.557 804.915,274.39 792.5,252.5C 792.669,250.088 792.003,247.921 790.5,246C 791.167,245 791.833,244 792.5,243C 791.863,241.287 790.863,241.121 789.5,242.5C 786.679,241.926 784.346,240.592 782.5,238.5C 779.022,239.691 776.189,238.691 774,235.5C 773.405,236.899 773.572,238.232 774.5,239.5C 771.82,242.443 771.153,242.11 772.5,238.5C 770.956,237.378 769.623,237.711 768.5,239.5C 765.871,235.823 764.038,236.489 763,241.5C 763.395,238.135 763.228,234.802 762.5,231.5C 757.665,229.194 757.331,230.028 761.5,234C 758.899,233.599 756.899,232.099 755.5,229.5C 757.162,228.673 758.495,227.507 759.5,226C 757.567,225.217 756.067,225.717 755,227.5C 754.411,224.21 755.911,222.71 759.5,223C 760.047,222.075 760.713,221.242 761.5,220.5C 761.833,221.833 762.167,223.167 762.5,224.5C 763.76,222.647 763.76,220.814 762.5,219C 759.78,218.203 757.28,217.037 755,215.5C 754.689,214.258 755.189,213.258 756.5,212.5C 755.833,211.833 755.167,211.167 754.5,210.5C 758.128,208.466 761.461,206.133 764.5,203.5C 765.554,203.68 766.554,204.013 767.5,204.5C 767.833,204.167 768.167,203.833 768.5,203.5C 764.2,200.918 764.533,199.584 769.5,199.5C 769.729,197.567 770.562,195.9 772,194.5C 773.113,195.711 774.28,195.711 775.5,194.5C 778.644,196.351 781.31,199.018 783.5,202.5C 786.047,201.02 787.214,201.686 787,204.5C 786.282,203.549 785.449,203.383 784.5,204C 785.729,205.529 787.229,206.696 789,207.5C 789.85,204.079 790.516,200.746 791,197.5C 790.333,196.167 789.667,196.167 789,197.5C 789.617,195.905 789.284,194.572 788,193.5C 786.681,195.25 786.181,197.25 786.5,199.5C 783.282,199.349 782.949,198.516 785.5,197C 779.899,192.594 779.232,188.094 783.5,183.5C 789.243,179.301 795.243,175.634 801.5,172.5C 803.898,172.741 805.898,172.074 807.5,170.5C 812.58,168.309 817.913,166.642 823.5,165.5C 834.081,163.238 844.748,162.905 855.5,164.5 Z"/></g>
<g><path style="opacity:1" fill="#686867" d="M 807.5,170.5 C 805.898,172.074 803.898,172.741 801.5,172.5C 803.102,170.926 805.102,170.259 807.5,170.5 Z"/></g>
<g><path style="opacity:1" fill="#fcfcfc" d="M 855.5,204.5 C 856.976,208.959 857.642,213.626 857.5,218.5C 858.833,230.833 858.833,243.167 857.5,255.5C 856.504,256.665 855.171,257.332 853.5,257.5C 827.551,250.007 816.051,232.674 819,205.5C 825.241,192.753 834.741,189.586 847.5,196C 850.083,199.077 852.75,201.911 855.5,204.5 Z"/></g>
<g><path style="opacity:1" fill="#616060" d="M 439.5,194.5 C 429.781,194.218 420.114,194.551 410.5,195.5C 410.611,194.883 410.944,194.383 411.5,194C 421.009,193.176 430.343,193.342 439.5,194.5 Z"/></g>
<g><path style="opacity:1" fill="#454545" d="M 209.5,204.5 C 215.548,203.37 221.548,203.703 227.5,205.5C 221.5,205.167 215.5,204.833 209.5,204.5 Z"/></g>
<g><path style="opacity:1" fill="#7d7e7d" d="M 209.5,204.5 C 204.288,205.492 198.954,206.492 193.5,207.5C 193.97,206.307 194.97,205.64 196.5,205.5C 200.798,204.703 205.132,204.37 209.5,204.5 Z"/></g>
<g><path style="opacity:1" fill="#494949" d="M 164.5,219.5 C 162.37,222.737 159.37,224.737 155.5,225.5C 157.641,222.383 160.641,220.383 164.5,219.5 Z"/></g>
<g><path style="opacity:1" fill="#434343" d="M 855.5,204.5 C 859.931,214.61 861.598,225.443 860.5,237C 860.496,243.538 859.83,249.705 858.5,255.5C 859.645,243.576 859.811,231.576 859,219.5C 858.617,218.944 858.117,218.611 857.5,218.5C 857.642,213.626 856.976,208.959 855.5,204.5 Z"/></g>
<g><path style="opacity:1" fill="#afafae" d="M 511.5,225.5 C 510.977,229.873 510.143,234.206 509,238.5C 508.261,240.889 507.095,242.889 505.5,244.5C 507.397,238.046 509.397,231.712 511.5,225.5 Z"/></g>
<g><path style="opacity:1" fill="#626261" d="M 119.5,253.5 C 116.508,257.492 113.174,261.158 109.5,264.5C 111.454,259.548 114.787,255.881 119.5,253.5 Z"/></g>
<g><path style="opacity:1" fill="#0e0e0e" d="M 367.5,425.5 C 370.082,425.975 372.082,425.308 373.5,423.5C 381.67,418.913 389.336,413.58 396.5,407.5C 400.473,402.207 403.806,396.54 406.5,390.5C 417.373,385.507 421.873,389.174 420,401.5C 407.298,422.203 390.131,438.037 368.5,449C 350.024,457.169 333.857,454.002 320,439.5C 318.354,437.391 317.188,435.057 316.5,432.5C 315.781,428.835 314.948,425.168 314,421.5C 313.617,420.944 313.117,420.611 312.5,420.5C 311.77,416.939 311.103,413.273 310.5,409.5C 310.334,402.159 310.5,394.826 311,387.5C 312.272,380.169 313.606,372.835 315,365.5C 316.297,366.784 317.464,366.617 318.5,365C 317.342,363.991 316.675,362.658 316.5,361C 317.805,357.605 318.471,354.105 318.5,350.5C 323.659,335.298 330.326,320.632 338.5,306.5C 339.325,305.614 340.325,305.281 341.5,305.5C 345.111,299.536 348.777,293.536 352.5,287.5C 353.325,286.614 354.325,286.281 355.5,286.5C 364.758,272.251 377.258,261.585 393,254.5C 413.31,247.829 427.644,254.163 436,273.5C 441.146,288.617 441.813,303.95 438,319.5C 433.614,327.077 428.28,328.077 422,322.5C 420.522,315.969 419.522,309.302 419,302.5C 413.193,287.346 402.36,281.846 386.5,286C 370.615,294.885 358.448,307.385 350,323.5C 336.933,345.434 330.933,369.1 332,394.5C 334.722,416.095 346.555,426.428 367.5,425.5 Z"/></g>
<g><path style="opacity:1" fill="#757575" d="M 397.5,304.5 C 392.453,304.337 387.453,304.671 382.5,305.5C 385.325,303.822 388.491,302.822 392,302.5C 394.111,302.701 395.945,303.367 397.5,304.5 Z"/></g>
<g><path style="opacity:1" fill="#b1b1b1" d="M 489.5,297.5 C 488.465,304.427 486.798,311.094 484.5,317.5C 485.321,310.53 486.988,303.864 489.5,297.5 Z"/></g>
<g><path style="opacity:1" fill="#0e0e0e" d="M 642.5,411.5 C 644.848,411.408 646.514,410.408 647.5,408.5C 648.239,408.631 648.906,408.464 649.5,408C 655.211,401.383 660.545,394.55 665.5,387.5C 667.063,386.055 668.396,384.389 669.5,382.5C 669.427,380.973 670.094,379.973 671.5,379.5C 673.326,377.853 674.66,375.853 675.5,373.5C 677.231,371.861 679.065,370.194 681,368.5C 682.161,365.844 683.661,363.511 685.5,361.5C 686.422,357.005 687.089,352.338 687.5,347.5C 689.815,338.738 691.482,329.738 692.5,320.5C 693.403,317.609 693.736,314.609 693.5,311.5C 698.994,295.157 705.661,279.157 713.5,263.5C 715.876,262.794 717.21,261.127 717.5,258.5C 722.591,248.864 728.591,239.864 735.5,231.5C 736.5,231.5 737.5,231.5 738.5,231.5C 740.014,228.711 741.014,225.711 741.5,222.5C 742.778,222.218 743.778,221.551 744.5,220.5C 747.851,218.146 750.518,215.146 752.5,211.5C 756.725,206.685 761.058,201.852 765.5,197C 770.961,191.771 776.961,187.271 783.5,183.5C 779.232,188.094 779.899,192.594 785.5,197C 782.949,198.516 783.282,199.349 786.5,199.5C 786.181,197.25 786.681,195.25 788,193.5C 789.284,194.572 789.617,195.905 789,197.5C 789.667,196.167 790.333,196.167 791,197.5C 790.516,200.746 789.85,204.079 789,207.5C 787.229,206.696 785.729,205.529 784.5,204C 785.449,203.383 786.282,203.549 787,204.5C 787.214,201.686 786.047,201.02 783.5,202.5C 781.31,199.018 778.644,196.351 775.5,194.5C 774.28,195.711 773.113,195.711 772,194.5C 770.562,195.9 769.729,197.567 769.5,199.5C 764.533,199.584 764.2,200.918 768.5,203.5C 768.167,203.833 767.833,204.167 767.5,204.5C 766.554,204.013 765.554,203.68 764.5,203.5C 761.461,206.133 758.128,208.466 754.5,210.5C 755.167,211.167 755.833,211.833 756.5,212.5C 755.189,213.258 754.689,214.258 755,215.5C 757.28,217.037 759.78,218.203 762.5,219C 763.76,220.814 763.76,222.647 762.5,224.5C 762.167,223.167 761.833,221.833 761.5,220.5C 760.713,221.242 760.047,222.075 759.5,223C 755.911,222.71 754.411,224.21 755,227.5C 756.067,225.717 757.567,225.217 759.5,226C 758.495,227.507 757.162,228.673 755.5,229.5C 756.899,232.099 758.899,233.599 761.5,234C 757.331,230.028 757.665,229.194 762.5,231.5C 763.228,234.802 763.395,238.135 763,241.5C 764.038,236.489 765.871,235.823 768.5,239.5C 769.623,237.711 770.956,237.378 772.5,238.5C 771.153,242.11 771.82,242.443 774.5,239.5C 773.572,238.232 773.405,236.899 774,235.5C 776.189,238.691 779.022,239.691 782.5,238.5C 784.346,240.592 786.679,241.926 789.5,242.5C 790.863,241.121 791.863,241.287 792.5,243C 791.833,244 791.167,245 790.5,246C 792.003,247.921 792.669,250.088 792.5,252.5C 790.837,250.507 789.67,248.174 789,245.5C 787.757,243.167 786.091,242.5 784,243.5C 756.257,280.551 740.424,322.218 736.5,368.5C 736.049,380.69 738.216,392.357 743,403.5C 752.324,417.289 764.158,419.956 778.5,411.5C 782.03,408.805 785.696,406.305 789.5,404C 795.707,397.294 802.04,390.794 808.5,384.5C 810.36,381.88 812.026,379.214 813.5,376.5C 815.71,376.106 817.043,374.773 817.5,372.5C 821.881,365.137 826.214,357.803 830.5,350.5C 830.682,352.591 830.348,354.591 829.5,356.5C 830.167,357.167 830.833,357.833 831.5,358.5C 828.942,360.12 828.942,361.62 831.5,363C 829.899,363.273 828.399,363.773 827,364.5C 826.667,363.833 826.333,363.167 826,362.5C 824.839,363.995 823.673,365.495 822.5,367C 824.915,368.86 824.915,370.526 822.5,372C 824.061,372.318 825.228,373.151 826,374.5C 826.333,374.167 826.667,373.833 827,373.5C 827.5,374.667 828.333,375.5 829.5,376C 829.167,376.333 828.833,376.667 828.5,377C 831.308,377.993 834.141,378.827 837,379.5C 839.215,377.21 840.881,374.543 842,371.5C 842.684,372.784 842.517,373.951 841.5,375C 842.5,375.667 843.5,375.667 844.5,375C 844.112,373.192 844.112,371.525 844.5,370C 845.167,369.333 845.833,369.333 846.5,370C 845.483,371.049 845.316,372.216 846,373.5C 847.923,371.881 848.423,370.048 847.5,368C 850.293,367.779 853.127,367.946 856,368.5C 857.478,363.376 859.644,358.543 862.5,354C 859.709,351.223 860.375,349.723 864.5,349.5C 867.376,343.729 866.709,338.563 862.5,334C 864.108,333.342 865.275,333.842 866,335.5C 866.684,333.521 866.184,331.854 864.5,330.5C 865.376,329.749 866.376,329.249 867.5,329C 866.228,326.956 866.561,325.122 868.5,323.5C 867.645,322.707 866.811,323.04 866,324.5C 865.217,322.567 865.717,321.067 867.5,320C 866.5,319 865.5,318 864.5,317C 866.277,314.848 867.777,315.015 869,317.5C 870,316.167 871,316.167 872,317.5C 871.581,315.497 870.747,313.497 869.5,311.5C 870.616,311.598 871.616,311.098 872.5,310C 872.167,309.5 871.833,309 871.5,308.5C 870.391,309.59 869.391,309.59 868.5,308.5C 869.695,307.033 869.695,305.533 868.5,304C 868.833,303.5 869.167,303 869.5,302.5C 870.029,306.753 872.362,308.587 876.5,308C 872.009,305.001 872.009,302.834 876.5,301.5C 875.391,299.786 876.058,299.119 878.5,299.5C 878.421,298.07 878.754,296.736 879.5,295.5C 878.5,294.833 877.5,294.167 876.5,293.5C 877.806,292.088 878.64,290.421 879,288.5C 879.811,289.96 880.645,290.293 881.5,289.5C 880.167,287.833 878.833,286.167 877.5,284.5C 878.383,283.452 879.05,282.285 879.5,281C 878.587,277.841 877.587,274.675 876.5,271.5C 876.667,271.167 876.833,270.833 877,270.5C 877.965,272.26 879.132,272.594 880.5,271.5C 878.539,270.152 878.372,268.819 880,267.5C 882.129,268.863 882.629,268.529 881.5,266.5C 883.007,265.261 884.174,265.595 885,267.5C 888.006,264.715 890.506,265.048 892.5,268.5C 891.355,269.891 891.355,271.224 892.5,272.5C 892.736,271.753 893.07,270.92 893.5,270C 894.449,269.383 895.282,269.549 896,270.5C 896.167,270.167 896.333,269.833 896.5,269.5C 895.624,268.749 894.624,268.249 893.5,268C 895.833,266 898.167,264 900.5,262C 897.888,261.361 895.554,260.194 893.5,258.5C 894.397,258.331 895.397,257.998 896.5,257.5C 894.525,256.725 893.691,255.391 894,253.5C 897.919,256.377 901.419,255.877 904.5,252C 903.122,248.363 900.455,246.863 896.5,247.5C 902.871,244.683 909.205,241.517 915.5,238C 920.062,234.259 924.729,230.759 929.5,227.5C 932.833,225.5 935.5,222.833 937.5,219.5C 940.54,215.527 943.706,215.527 947,219.5C 947.599,225.108 946.599,230.441 944,235.5C 939.2,241.302 934.033,246.802 928.5,252C 916.421,260.459 903.921,268.292 891,275.5C 881.496,334.352 855.329,384.185 812.5,425C 797.429,437.064 780.429,445.064 761.5,449C 736.613,451.805 716.113,443.639 700,424.5C 695.625,417.771 692.625,410.438 691,402.5C 690.051,399.653 688.385,397.32 686,395.5C 677.642,405.528 669.642,415.862 662,426.5C 647.688,445.907 628.522,456.907 604.5,459.5C 590.395,458.689 580.395,452.023 574.5,439.5C 572.254,427.658 571.921,415.658 573.5,403.5C 574.921,386.469 578.587,369.802 584.5,353.5C 599.279,315.804 614.112,278.137 629,240.5C 630.298,229.128 625.464,224.961 614.5,228C 610.664,230.084 606.997,232.417 603.5,235C 562.402,274.33 533.902,321.497 518,376.5C 508.779,406.165 500.779,436.165 494,466.5C 492.719,472.904 488.885,476.737 482.5,478C 472.417,480.563 462.25,482.729 452,484.5C 444.198,484.197 440.031,480.197 439.5,472.5C 444.66,452.061 450.327,432.061 456.5,412.5C 458.954,408.327 459.954,403.661 459.5,398.5C 462.38,392.083 464.713,385.416 466.5,378.5C 468.407,374.161 469.407,369.495 469.5,364.5C 471.814,360.552 473.148,356.219 473.5,351.5C 475.09,349.525 476.257,347.192 477,344.5C 477.497,342.19 477.663,339.857 477.5,337.5C 480.437,331.022 482.77,324.355 484.5,317.5C 486.798,311.094 488.465,304.427 489.5,297.5C 495.882,280.13 501.216,262.464 505.5,244.5C 507.095,242.889 508.261,240.889 509,238.5C 510.143,234.206 510.977,229.873 511.5,225.5C 518.577,206.781 525.411,187.781 532,168.5C 540.877,143.7 550.043,119.034 559.5,94.5C 561.602,91.0688 563.435,87.4022 565,83.5C 565.333,83.8333 565.667,84.1667 566,84.5C 567.452,78.2571 568.285,71.9237 568.5,65.5C 568.498,62.3138 568.165,59.3138 567.5,56.5C 564.404,49.8313 565.737,43.998 571.5,39C 573.727,38.059 575.727,36.8923 577.5,35.5C 581.246,33.8403 585.246,32.507 589.5,31.5C 590.722,28.9106 592.722,28.0772 595.5,29C 593.842,29.7253 593.342,30.892 594,32.5C 595.887,30.9739 596.887,28.9739 597,26.5C 598.507,27.5348 600.007,27.3681 601.5,26C 601.167,25.6667 600.833,25.3333 600.5,25C 604.613,23.812 608.28,21.9786 611.5,19.5C 619.222,15.2577 627.555,13.7577 636.5,15C 640.203,18.396 641.369,22.5626 640,27.5C 609.945,104.279 580.445,181.279 551.5,258.5C 552.002,259.521 552.668,259.688 553.5,259C 565.66,246.752 576.66,233.585 586.5,219.5C 592.323,215.51 597.323,210.677 601.5,205C 611.205,198.819 620.872,192.652 630.5,186.5C 636.604,184.974 642.604,183.141 648.5,181C 668.79,178.218 681.29,186.718 686,206.5C 686.818,216.596 686.151,226.596 684,236.5C 673.834,270 661.501,302.666 647,334.5C 639.874,352.545 633.54,370.878 628,389.5C 626.701,396.933 627.868,403.933 631.5,410.5C 634.974,412.725 638.641,413.059 642.5,411.5 Z"/></g>
<g><path style="opacity:1" fill="#4d4d4d" d="M 849.5,301.5 C 848.497,306.346 847.163,311.012 845.5,315.5C 845.655,310.288 846.988,305.622 849.5,301.5 Z"/></g>
<g><path style="opacity:1" fill="#7e7e7e" d="M 717.5,258.5 C 717.21,261.127 715.876,262.794 713.5,263.5C 713.79,260.873 715.124,259.206 717.5,258.5 Z"/></g>
<g><path style="opacity:1" fill="#fdfdfd" d="M 792.5,252.5 C 804.915,274.39 823.915,285.557 849.5,286C 850.98,287.299 851.646,288.966 851.5,291C 850.195,294.395 849.529,297.895 849.5,301.5C 846.988,305.622 845.655,310.288 845.5,315.5C 840.429,327.004 835.429,338.671 830.5,350.5C 826.214,357.803 821.881,365.137 817.5,372.5C 815.29,372.894 813.957,374.227 813.5,376.5C 812.026,379.214 810.36,381.88 808.5,384.5C 802.04,390.794 795.707,397.294 789.5,404C 785.696,406.305 782.03,408.805 778.5,411.5C 764.158,419.956 752.324,417.289 743,403.5C 738.216,392.357 736.049,380.69 736.5,368.5C 740.424,322.218 756.257,280.551 784,243.5C 786.091,242.5 787.757,243.167 789,245.5C 789.67,248.174 790.837,250.507 792.5,252.5 Z"/></g>
<g><path style="opacity:1" fill="#bababa" d="M 857.5,218.5 C 858.117,218.611 858.617,218.944 859,219.5C 859.811,231.576 859.645,243.576 858.5,255.5C 858.167,255.5 857.833,255.5 857.5,255.5C 858.833,243.167 858.833,230.833 857.5,218.5 Z"/></g>
<g><path style="opacity:1" fill="#464646" d="M 741.5,222.5 C 741.014,225.711 740.014,228.711 738.5,231.5C 737.5,231.5 736.5,231.5 735.5,231.5C 736.759,227.975 738.759,224.975 741.5,222.5 Z"/></g>
<g><path style="opacity:1" fill="#575757" d="M 937.5,219.5 C 935.5,222.833 932.833,225.5 929.5,227.5C 929.369,226.761 929.536,226.094 930,225.5C 932.312,223.132 934.812,221.132 937.5,219.5 Z"/></g>
<g><path style="opacity:1" fill="#505151" d="M 752.5,211.5 C 750.518,215.146 747.851,218.146 744.5,220.5C 746.492,216.812 749.159,213.812 752.5,211.5 Z"/></g>
<g><path style="opacity:1" fill="#b7b7b7" d="M 693.5,311.5 C 693.736,314.609 693.403,317.609 692.5,320.5C 690.039,329.24 688.373,338.24 687.5,347.5C 687.167,347.5 686.833,347.5 686.5,347.5C 686.768,340.772 687.602,334.105 689,327.5C 690.375,322.027 691.875,316.694 693.5,311.5 Z"/></g>
<g><path style="opacity:1" fill="#0d0e0e" d="M 439.5,194.5 C 462.68,198.852 475.846,212.852 479,236.5C 478.884,253.642 475.884,270.308 470,286.5C 467.056,292.815 462.223,295.648 455.5,295C 453.944,294.28 452.944,293.113 452.5,291.5C 452.689,280.091 451.856,268.758 450,257.5C 449.617,256.944 449.117,256.611 448.5,256.5C 439.94,229.561 422.273,221.394 395.5,232C 376.185,240.631 359.685,253.131 346,269.5C 324.018,294.78 307.685,323.446 297,355.5C 289.219,382.358 288.553,409.358 295,436.5C 302.482,455.832 315.982,468.165 335.5,473.5C 338.314,474.165 341.314,474.498 344.5,474.5C 347.913,474.483 350.913,473.816 353.5,472.5C 358.436,472.413 363.103,471.246 367.5,469C 374.204,465.8 380.537,461.966 386.5,457.5C 393.193,451.139 399.86,444.806 406.5,438.5C 413.077,431.292 418.744,423.625 423.5,415.5C 426.167,413.827 428.167,411.493 429.5,408.5C 438.024,404.515 441.524,407.181 440,416.5C 425.662,447.17 404.495,472.004 376.5,491C 358.03,502.712 337.863,509.212 316,510.5C 271.34,508.002 246.174,484.669 240.5,440.5C 239.751,438.988 238.584,437.988 237,437.5C 213.495,465.671 187.328,491.171 158.5,514C 142.432,526.701 124.432,535.701 104.5,541C 57.5288,549.717 29.5288,530.883 20.5,484.5C 19.7235,462.992 20.7235,441.659 23.5,420.5C 24.292,412.975 25.792,405.641 28,398.5C 38.6814,367.547 52.8481,338.214 70.5,310.5C 71.325,309.614 72.325,309.281 73.5,309.5C 73.4772,307.4 74.1439,305.567 75.5,304C 85.733,289.621 97.0663,276.455 109.5,264.5C 113.174,261.158 116.508,257.492 119.5,253.5C 125.343,246.492 132.01,240.326 139.5,235C 144.724,231.559 150.057,228.392 155.5,225.5C 159.37,224.737 162.37,222.737 164.5,219.5C 167.864,216.873 171.531,214.706 175.5,213C 181.508,211.034 187.508,209.201 193.5,207.5C 198.954,206.492 204.288,205.492 209.5,204.5C 215.5,204.833 221.5,205.167 227.5,205.5C 247.313,211.685 258.146,225.352 260,246.5C 260.979,258.005 259.979,269.338 257,280.5C 246.792,308.375 230.625,332.208 208.5,352C 173.565,381.803 133.565,402.136 88.5,413C 87.1068,414.171 86.2735,415.671 86,417.5C 81.4748,437.348 83.8081,456.348 93,474.5C 102.346,487.357 114.846,491.691 130.5,487.5C 138.134,485.433 145.467,482.766 152.5,479.5C 157.038,477.967 161.371,475.967 165.5,473.5C 167.513,472.031 169.18,470.364 170.5,468.5C 173.58,464.75 177.247,461.75 181.5,459.5C 186.982,455.517 192.315,451.351 197.5,447C 198.305,445.887 198.972,444.721 199.5,443.5C 201.5,442.833 202.833,441.5 203.5,439.5C 208.167,436.167 212.167,432.167 215.5,427.5C 217.991,424.807 220.157,421.807 222,418.5C 225.072,415.257 228.239,412.257 231.5,409.5C 233.914,408.089 235.581,406.089 236.5,403.5C 238.11,400.554 240.11,397.888 242.5,395.5C 248.771,360.236 261.271,327.236 280,296.5C 283.75,289.78 288.25,283.78 293.5,278.5C 295.897,275.327 298.897,272.661 302.5,270.5C 303.167,271.167 303.833,271.833 304.5,272.5C 304.833,272 305.167,271.5 305.5,271C 304.144,269.433 303.477,267.6 303.5,265.5C 303.833,263.167 305.167,261.833 307.5,261.5C 310.19,259.807 312.19,257.473 313.5,254.5C 313.369,253.761 313.536,253.094 314,252.5C 316.312,250.132 318.812,248.132 321.5,246.5C 323.549,245.118 325.215,243.452 326.5,241.5C 346.668,221.083 370.335,206.249 397.5,197C 401.79,196.077 406.123,195.577 410.5,195.5C 420.114,194.551 429.781,194.218 439.5,194.5 Z"/></g>
<g><path style="opacity:1" fill="#7b7b7b" d="M 195.5,310.5 C 194.389,313.838 192.389,316.505 189.5,318.5C 190.845,316.303 192.011,313.97 193,311.5C 193.671,310.748 194.504,310.414 195.5,310.5 Z"/></g>
<g><path style="opacity:1" fill="#3b3b3b" d="M 448.5,256.5 C 449.117,256.611 449.617,256.944 450,257.5C 451.856,268.758 452.689,280.091 452.5,291.5C 451.933,279.832 450.6,268.166 448.5,256.5 Z"/></g>
<g><path style="opacity:1" fill="#333434" d="M 303.5,265.5 C 303.477,267.6 304.144,269.433 305.5,271C 305.167,271.5 304.833,272 304.5,272.5C 303.833,271.833 303.167,271.167 302.5,270.5C 298.897,272.661 295.897,275.327 293.5,278.5C 293.491,276.692 293.991,275.025 295,273.5C 297.511,271.321 299.678,268.821 301.5,266C 302.094,265.536 302.761,265.369 303.5,265.5 Z"/></g>
<g><path style="opacity:1" fill="#424343" d="M 216.5,243.5 C 217.825,247.276 218.491,251.443 218.5,256C 219.014,262.631 218.014,268.798 215.5,274.5C 217.654,264.277 217.987,253.944 216.5,243.5 Z"/></g>
<g><path style="opacity:1" fill="#686868" d="M 313.5,254.5 C 312.19,257.473 310.19,259.807 307.5,261.5C 308.139,259.24 309.306,257.24 311,255.5C 311.671,254.748 312.504,254.414 313.5,254.5 Z"/></g>
<g><path style="opacity:1" fill="#5f5f5f" d="M 326.5,241.5 C 325.215,243.452 323.549,245.118 321.5,246.5C 322.144,243.856 323.811,242.189 326.5,241.5 Z"/></g>
<g><path style="opacity:1" fill="#fcfcfc" d="M 216.5,243.5 C 217.987,253.944 217.654,264.277 215.5,274.5C 212.619,280.77 209.619,287.103 206.5,293.5C 202.593,298.974 198.926,304.641 195.5,310.5C 194.504,310.414 193.671,310.748 193,311.5C 192.011,313.97 190.845,316.303 189.5,318.5C 187.281,319.828 185.948,321.828 185.5,324.5C 180.701,326.722 177.368,330.388 175.5,335.5C 172.6,337.18 169.934,339.18 167.5,341.5C 163.222,343.78 159.555,346.78 156.5,350.5C 154.118,351.351 152.118,352.684 150.5,354.5C 148.118,355.351 146.118,356.684 144.5,358.5C 134.594,364.586 124.26,369.919 113.5,374.5C 110.279,374.896 107.612,376.229 105.5,378.5C 102.887,379.435 100.221,379.602 97.5,379C 96.9781,378.439 96.6448,377.772 96.5,377C 111.112,340.11 130.279,305.943 154,274.5C 162.433,264.064 171.599,254.231 181.5,245C 186.301,240.875 191.635,237.542 197.5,235C 206.435,232.473 212.768,235.307 216.5,243.5 Z"/></g>
<g><path style="opacity:1" fill="#626262" d="M 363.5,327.5 C 362.518,330.808 360.518,333.141 357.5,334.5C 359.073,331.735 361.073,329.401 363.5,327.5 Z"/></g>
<g><path style="opacity:1" fill="#0e0e0e" d="M 397.5,304.5 C 405.375,307.85 410.208,313.85 412,322.5C 414.967,332.567 411.634,339.233 402,342.5C 400.289,342.561 398.956,341.894 398,340.5C 394.451,325.729 387.451,323.729 377,334.5C 368.791,347.672 364.791,362.005 365,377.5C 366.055,380.056 367.888,381.723 370.5,382.5C 370.611,383.117 370.944,383.617 371.5,384C 374.367,384.801 377.034,384.634 379.5,383.5C 381.522,381.449 383.522,379.449 385.5,377.5C 387.278,374.784 388.945,371.95 390.5,369C 392.473,368.505 394.473,368.338 396.5,368.5C 402.576,373.075 403.076,378.408 398,384.5C 393.112,393.721 385.945,400.555 376.5,405C 359.845,408.172 350.512,401.339 348.5,384.5C 347.955,374.199 348.955,364.199 351.5,354.5C 352.675,347.637 354.675,340.97 357.5,334.5C 360.518,333.141 362.518,330.808 363.5,327.5C 365.129,323.476 367.296,319.81 370,316.5C 373.917,312.473 378.084,308.806 382.5,305.5C 387.453,304.671 392.453,304.337 397.5,304.5 Z"/></g>
<g><path style="opacity:1" fill="#414141" d="M 692.5,320.5 C 691.482,329.738 689.815,338.738 687.5,347.5C 688.373,338.24 690.039,329.24 692.5,320.5 Z"/></g>
<g><path style="opacity:1" fill="#202020" d="M 206.5,293.5 C 206.66,295.199 206.494,296.866 206,298.5C 205.346,297.304 204.846,297.304 204.5,298.5C 205.167,299.833 205.833,301.167 206.5,302.5C 204.675,303.571 203.508,302.904 203,300.5C 201.264,305.004 199.264,309.337 197,313.5C 196.333,314.833 195.667,314.833 195,313.5C 194.219,314.944 194.386,316.277 195.5,317.5C 196.451,316.674 197.451,316.508 198.5,317C 196.981,318.351 195.648,319.851 194.5,321.5C 193.914,321.291 193.414,320.957 193,320.5C 191.796,321.471 191.296,322.471 191.5,323.5C 190.522,323.023 189.689,322.357 189,321.5C 188.846,324.525 187.346,326.191 184.5,326.5C 184.034,328.201 184.034,329.701 184.5,331C 181.456,331.359 181.122,332.026 183.5,333C 182.549,333.718 182.383,334.551 183,335.5C 184.049,334.483 185.216,334.316 186.5,335C 185,335.833 183.833,337 183,338.5C 181.325,335.07 178.825,334.07 175.5,335.5C 177.368,330.388 180.701,326.722 185.5,324.5C 185.948,321.828 187.281,319.828 189.5,318.5C 192.389,316.505 194.389,313.838 195.5,310.5C 198.926,304.641 202.593,298.974 206.5,293.5 Z"/></g>
<g><path style="opacity:1" fill="#535453" d="M 167.5,341.5 C 165.245,343.986 162.911,346.486 160.5,349C 159.255,349.791 157.922,350.291 156.5,350.5C 159.555,346.78 163.222,343.78 167.5,341.5 Z"/></g>
<g><path style="opacity:1" fill="#b2b2b2" d="M 477.5,337.5 C 477.663,339.857 477.497,342.19 477,344.5C 476.257,347.192 475.09,349.525 473.5,351.5C 474.469,346.61 475.802,341.943 477.5,337.5 Z"/></g>
<g><path style="opacity:1" fill="#4f5050" d="M 686.5,347.5 C 686.833,347.5 687.167,347.5 687.5,347.5C 687.089,352.338 686.422,357.005 685.5,361.5C 685.283,356.77 685.617,352.103 686.5,347.5 Z"/></g>
<g><path style="opacity:1" fill="#5e5e5f" d="M 150.5,354.5 C 149.267,356.796 147.267,358.13 144.5,358.5C 146.118,356.684 148.118,355.351 150.5,354.5 Z"/></g>
<g><path style="opacity:1" fill="#b2b2b2" d="M 317.5,350.5 C 316.216,356.865 314.716,363.198 313,369.5C 312.617,370.056 312.117,370.389 311.5,370.5C 313.081,363.609 315.081,356.943 317.5,350.5 Z"/></g>
<g><path style="opacity:1" fill="#2e2e2e" d="M 317.5,350.5 C 317.833,350.5 318.167,350.5 318.5,350.5C 318.471,354.105 317.805,357.605 316.5,361C 316.675,362.658 317.342,363.991 318.5,365C 317.464,366.617 316.297,366.784 315,365.5C 313.606,372.835 312.272,380.169 311,387.5C 310.5,394.826 310.334,402.159 310.5,409.5C 309.834,405.012 309.501,400.346 309.5,395.5C 310.026,387.14 310.692,378.807 311.5,370.5C 312.117,370.389 312.617,370.056 313,369.5C 314.716,363.198 316.216,356.865 317.5,350.5 Z"/></g>
<g><path style="opacity:1" fill="#b3b3b3" d="M 469.5,364.5 C 469.407,369.495 468.407,374.161 466.5,378.5C 466.593,373.505 467.593,368.839 469.5,364.5 Z"/></g>
<g><path style="opacity:1" fill="#494949" d="M 351.5,354.5 C 348.955,364.199 347.955,374.199 348.5,384.5C 347.347,378.347 347.18,372.014 348,365.5C 348.763,361.541 349.93,357.874 351.5,354.5 Z"/></g>
<g><path style="opacity:1" fill="#9c9c9c" d="M 675.5,373.5 C 674.66,375.853 673.326,377.853 671.5,379.5C 671.845,376.802 673.178,374.802 675.5,373.5 Z"/></g>
<g><path style="opacity:1" fill="#7c7c7c" d="M 817.5,372.5 C 817.043,374.773 815.71,376.106 813.5,376.5C 813.957,374.227 815.29,372.894 817.5,372.5 Z"/></g>
<g><path style="opacity:1" fill="#939393" d="M 113.5,374.5 C 111.211,376.387 108.545,377.721 105.5,378.5C 107.612,376.229 110.279,374.896 113.5,374.5 Z"/></g>
<g><path style="opacity:1" fill="#5a5958" d="M 396.5,368.5 C 394.473,368.338 392.473,368.505 390.5,369C 388.945,371.95 387.278,374.784 385.5,377.5C 386.148,374.038 387.482,370.871 389.5,368C 392.039,367.204 394.372,367.371 396.5,368.5 Z"/></g>
<g><path style="opacity:1" fill="#9c9c9c" d="M 370.5,382.5 C 373.43,383.299 376.43,383.632 379.5,383.5C 377.034,384.634 374.367,384.801 371.5,384C 370.944,383.617 370.611,383.117 370.5,382.5 Z"/></g>
<g><path style="opacity:1" fill="#989897" d="M 669.5,382.5 C 668.396,384.389 667.063,386.055 665.5,387.5C 665.67,384.796 667.003,383.129 669.5,382.5 Z"/></g>
<g><path style="opacity:1" fill="#b4b4b4" d="M 459.5,398.5 C 459.954,403.661 458.954,408.327 456.5,412.5C 457.503,407.795 458.503,403.128 459.5,398.5 Z"/></g>
<g><path style="opacity:1" fill="#707070" d="M 236.5,403.5 C 235.581,406.089 233.914,408.089 231.5,409.5C 232.473,406.865 234.14,404.865 236.5,403.5 Z"/></g>
<g><path style="opacity:1" fill="#9a9a9a" d="M 429.5,408.5 C 428.167,411.493 426.167,413.827 423.5,415.5C 424.829,412.454 426.829,410.121 429.5,408.5 Z"/></g>
<g><path style="opacity:1" fill="#727272" d="M 647.5,408.5 C 646.514,410.408 644.848,411.408 642.5,411.5C 643.659,409.75 645.326,408.75 647.5,408.5 Z"/></g>
<g><path style="opacity:1" fill="#626262" d="M 573.5,403.5 C 571.921,415.658 572.254,427.658 574.5,439.5C 573.207,438.158 572.374,436.491 572,434.5C 571.833,429.333 571.667,424.167 571.5,419C 571.505,413.454 572.172,408.288 573.5,403.5 Z"/></g>
<g><path style="opacity:1" fill="#4c4c4c" d="M 312.5,420.5 C 313.117,420.611 313.617,420.944 314,421.5C 314.948,425.168 315.781,428.835 316.5,432.5C 314.117,428.99 312.783,424.99 312.5,420.5 Z"/></g>
<g><path style="opacity:1" fill="#828282" d="M 373.5,423.5 C 372.082,425.308 370.082,425.975 367.5,425.5C 369.302,424.542 371.302,423.875 373.5,423.5 Z"/></g>
<g><path style="opacity:1" fill="#5b5b5b" d="M 215.5,427.5 C 212.167,432.167 208.167,436.167 203.5,439.5C 203.369,438.761 203.536,438.094 204,437.5C 207.429,433.561 211.263,430.228 215.5,427.5 Z"/></g>
<g><path style="opacity:1" fill="#636263" d="M 203.5,439.5 C 202.833,441.5 201.5,442.833 199.5,443.5C 199.833,441.167 201.167,439.833 203.5,439.5 Z"/></g>
<g><path style="opacity:1" fill="#4f4f4f" d="M 199.5,443.5 C 198.972,444.721 198.305,445.887 197.5,447C 192.315,451.351 186.982,455.517 181.5,459.5C 186.666,453.247 192.666,447.914 199.5,443.5 Z"/></g>
<g><path style="opacity:1" fill="#929292" d="M 19.5,446.5 C 18.2016,458.498 18.2016,470.498 19.5,482.5C 18.0236,475.39 17.3569,468.057 17.5,460.5C 17.5067,455.449 18.1734,450.783 19.5,446.5 Z"/></g>
<g><path style="opacity:1" fill="#3c3d3c" d="M 23.5,420.5 C 20.7235,441.659 19.7235,462.992 20.5,484.5C 19.6618,484.158 19.3284,483.492 19.5,482.5C 18.2016,470.498 18.2016,458.498 19.5,446.5C 19.4276,438.079 20.261,429.745 22,421.5C 22.3826,420.944 22.8826,420.611 23.5,420.5 Z"/></g>
<g><path style="opacity:1" fill="#4f504f" d="M 170.5,468.5 C 169.18,470.364 167.513,472.031 165.5,473.5C 161.371,475.967 157.038,477.967 152.5,479.5C 158.232,475.469 164.232,471.802 170.5,468.5 Z"/></g>
<g><path style="opacity:1" fill="#686868" d="M 353.5,472.5 C 350.913,473.816 347.913,474.483 344.5,474.5C 341.314,474.498 338.314,474.165 335.5,473.5C 341.559,473.746 347.559,473.413 353.5,472.5 Z"/></g>
<g><path style="opacity:1" fill="#393939" d="M 729.5,507.5 C 695.146,507.201 660.813,507.534 626.5,508.5C 627.5,507.833 628.5,507.167 629.5,506.5C 647.841,506.627 666.175,506.293 684.5,505.5C 699.672,505.899 714.672,506.566 729.5,507.5 Z"/></g>
<g><path style="opacity:1" fill="#808080" d="M 629.5,506.5 C 628.5,507.167 627.5,507.833 626.5,508.5C 621.5,508.5 616.5,508.5 611.5,508.5C 617.34,507.649 623.34,506.982 629.5,506.5 Z"/></g>
<g><path style="opacity:1" fill="#7a7a7a" d="M 729.5,507.5 C 738.05,507.29 746.384,507.957 754.5,509.5C 745.978,509.345 737.644,508.678 729.5,507.5 Z"/></g>
<g><path style="opacity:1" fill="#7a7a7a" d="M 586.5,510.5 C 585.737,511.268 584.737,511.768 583.5,512C 578.511,512.499 573.511,512.666 568.5,512.5C 574.34,511.649 580.34,510.982 586.5,510.5 Z"/></g>
<g><path style="opacity:1" fill="#7a7a7a" d="M 767.5,510.5 C 770.01,510.927 772.343,511.593 774.5,512.5C 772.473,512.662 770.473,512.495 768.5,512C 767.944,511.617 767.611,511.117 767.5,510.5 Z"/></g>
<g><path style="opacity:1" fill="#b9b9b9" d="M 545.5,515.5 C 539.053,516.936 532.386,517.603 525.5,517.5C 531.959,516.187 538.626,515.521 545.5,515.5 Z"/></g>
<g><path style="opacity:1" fill="#949494" d="M 517.5,519.5 C 514.316,520.323 510.983,520.99 507.5,521.5C 507.611,520.883 507.944,520.383 508.5,520C 511.482,519.502 514.482,519.335 517.5,519.5 Z"/></g>
<g><path style="opacity:1" fill="#696969" d="M 501.5,521.5 C 501.389,522.117 501.056,522.617 500.5,523C 497.456,523.363 494.456,523.863 491.5,524.5C 494.372,522.69 497.705,521.69 501.5,521.5 Z"/></g>
<g><path style="opacity:1" fill="#474848" d="M 488.5,524.5 C 487.848,525.725 486.681,526.392 485,526.5C 481.196,527.205 477.363,527.538 473.5,527.5C 478.363,526.261 483.363,525.261 488.5,524.5 Z"/></g>
<g><path style="opacity:1" fill="#666666" d="M 448.5,532.5 C 448.389,533.117 448.056,533.617 447.5,534C 443.534,534.828 439.534,535.328 435.5,535.5C 439.618,534.045 443.951,533.045 448.5,532.5 Z"/></g>
<g><path style="opacity:1" fill="#0e0f0e" d="M 729.5,507.5 C 737.644,508.678 745.978,509.345 754.5,509.5C 758.768,510.373 763.102,510.706 767.5,510.5C 767.611,511.117 767.944,511.617 768.5,512C 770.473,512.495 772.473,512.662 774.5,512.5C 779.107,513.77 783.773,514.937 788.5,516C 796.331,520.986 797.331,526.986 791.5,534C 770.2,533.075 748.867,532.241 727.5,531.5C 710.819,532.036 694.152,532.869 677.5,534C 606.584,540.783 536.917,554.116 468.5,574C 407.445,591.04 348.779,613.873 292.5,642.5C 256.167,642.5 219.833,642.5 183.5,642.5C 185.994,632.673 191.994,626.007 201.5,622.5C 204.513,620.5 207.846,619.5 211.5,619.5C 211.5,620.5 211.5,621.5 211.5,622.5C 213.103,622.688 214.437,622.188 215.5,621C 214.09,620.632 213.09,619.799 212.5,618.5C 214.585,617.459 216.252,615.959 217.5,614C 219.441,613.696 221.107,612.863 222.5,611.5C 222.669,612.397 223.002,613.397 223.5,614.5C 224.619,611.913 225.953,609.58 227.5,607.5C 231.752,603.671 236.752,601.171 242.5,600C 255.027,592.365 268.36,586.532 282.5,582.5C 284.987,581.677 287.321,580.677 289.5,579.5C 290.833,578.833 292.167,578.167 293.5,577.5C 296.716,577.655 299.383,576.655 301.5,574.5C 314.814,569.836 328.148,565.17 341.5,560.5C 354.625,557.135 367.625,553.302 380.5,549C 388.979,547.629 397.312,545.796 405.5,543.5C 408.97,542.782 412.47,542.116 416,541.5C 417.376,541.316 418.209,540.649 418.5,539.5C 424.24,538.05 429.906,536.717 435.5,535.5C 439.534,535.328 443.534,534.828 447.5,534C 448.056,533.617 448.389,533.117 448.5,532.5C 456.885,530.584 465.218,528.918 473.5,527.5C 477.363,527.538 481.196,527.205 485,526.5C 486.681,526.392 487.848,525.725 488.5,524.5C 489.5,524.5 490.5,524.5 491.5,524.5C 494.456,523.863 497.456,523.363 500.5,523C 501.056,522.617 501.389,522.117 501.5,521.5C 503.5,521.5 505.5,521.5 507.5,521.5C 510.983,520.99 514.316,520.323 517.5,519.5C 520.167,518.833 522.833,518.167 525.5,517.5C 532.386,517.603 539.053,516.936 545.5,515.5C 553.183,514.652 560.85,513.652 568.5,512.5C 573.511,512.666 578.511,512.499 583.5,512C 584.737,511.768 585.737,511.268 586.5,510.5C 595.017,510.268 603.35,509.601 611.5,508.5C 616.5,508.5 621.5,508.5 626.5,508.5C 660.813,507.534 695.146,507.201 729.5,507.5 Z"/></g>
<g><path style="opacity:1" fill="#4c4d4d" d="M 418.5,539.5 C 418.209,540.649 417.376,541.316 416,541.5C 412.47,542.116 408.97,542.782 405.5,543.5C 405.97,542.307 406.97,541.64 408.5,541.5C 411.919,541.043 415.252,540.376 418.5,539.5 Z"/></g>
<g><path style="opacity:1" fill="#8a8a8a" d="M 301.5,574.5 C 299.383,576.655 296.716,577.655 293.5,577.5C 295.936,576.129 298.603,575.129 301.5,574.5 Z"/></g>
<g><path style="opacity:1" fill="#979797" d="M 289.5,579.5 C 287.321,580.677 284.987,581.677 282.5,582.5C 284.09,580.179 286.423,579.179 289.5,579.5 Z"/></g>
<g><path style="opacity:1" fill="#282829" d="M 227.5,607.5 C 225.953,609.58 224.619,611.913 223.5,614.5C 223.002,613.397 222.669,612.397 222.5,611.5C 221.107,612.863 219.441,613.696 217.5,614C 216.252,615.959 214.585,617.459 212.5,618.5C 213.09,619.799 214.09,620.632 215.5,621C 214.437,622.188 213.103,622.688 211.5,622.5C 211.5,621.5 211.5,620.5 211.5,619.5C 207.846,619.5 204.513,620.5 201.5,622.5C 209.138,616.005 217.804,611.005 227.5,607.5 Z"/></g>
</svg>
